# xmcd
#
# Track frame offsets:
#	150
#	23055
#	43035
#	60016
#	90176
#	109532
#	125895
#	144875
#	170760
#	184524
#	201982
#	226036
#	255697
#	274250
#	299808
#
# Disc length: 4175 seconds
#
# Revision: 0
# Processed by: cddbd v1.5PL3 Copyright (c) Steve Scherf et al.
# Submitted via: dBpowerAMP V4.0
#
DISCID=cf104d0f
DTITLE=Philippe Ménard - faut l'Bazar
DYEAR=1900
DGENRE=Blues
TTITLE0=We got to burn the rockschools down
TTITLE1=Moonchild
TTITLE2=Hungry Dog
TTITLE3=Laundromat
TTITLE4=Louise
TTITLE5=I small a rat
TTITLE6=Wait until tomorrow
TTITLE7=Voodo child (slight return)
TTITLE8=Banks of the river
TTITLE9=Don't miss me
TTITLE10=Delaware slide
TTITLE11=As the crow flies
TTITLE12=Kind hearted woman
TTITLE13=Who do you love
TTITLE14=Trouble 97
EXTD=
EXTT0=
EXTT1=
EXTT2=
EXTT3=
EXTT4=
EXTT5=
EXTT6=
EXTT7=
EXTT8=
EXTT9=
EXTT10=
EXTT11=
EXTT12=
EXTT13=
EXTT14=
PLAYORDER=
